<svg xmlns="http://www.w3.org/2000/svg" viewBox="0 0 244.285 244.285"><path d="M29.317 2.189C13.565 2.189.751 15.003.751 30.755s12.814 28.566 28.566 28.566 28.566-12.814 28.566-28.566S45.068 2.189 29.317 2.189zm0 46.254c-9.752 0-17.688-7.936-17.688-17.688s7.936-17.688 17.688-17.688c9.752 0 17.688 7.936 17.688 17.688s-7.936 17.688-17.688 17.688zM121.77 2.189c-15.752 0-28.566 12.814-28.566 28.566s12.814 28.566 28.566 28.566 28.566-12.814 28.566-28.566S137.521 2.189 121.77 2.189zm0 46.254c-9.752 0-17.688-7.936-17.688-17.688s7.936-17.688 17.688-17.688 17.688 7.936 17.688 17.688-7.936 17.688-17.688 17.688zm93.949 10.878c15.752 0 28.566-12.814 28.566-28.566S231.47 2.189 215.719 2.189s-28.566 12.814-28.566 28.566 12.814 28.566 28.566 28.566zm0-46.254c9.752 0 17.688 7.936 17.688 17.688s-7.936 17.688-17.688 17.688c-9.752 0-17.688-7.936-17.688-17.688s7.936-17.688 17.688-17.688zM28.566 150.855c15.752 0 28.566-12.809 28.566-28.566 0-15.752-12.814-28.566-28.566-28.566S0 106.538 0 122.289s12.814 28.566 28.566 28.566zm0-46.254c9.752 0 17.688 7.936 17.688 17.688s-7.936 17.688-17.688 17.688-17.688-7.936-17.688-17.688 7.936-17.688 17.688-17.688zm92.459 46.254c15.752 0 28.566-12.809 28.566-28.566 0-15.752-12.814-28.566-28.566-28.566s-28.566 12.814-28.566 28.566 12.814 28.566 28.566 28.566zm0-46.254c9.752 0 17.688 7.936 17.688 17.688s-7.936 17.688-17.688 17.688-17.688-7.936-17.688-17.688 7.93-17.688 17.688-17.688zm93.949 46.254c15.752 0 28.566-12.809 28.566-28.566 0-15.752-12.814-28.566-28.566-28.566s-28.566 12.814-28.566 28.566c-.006 15.752 12.814 28.566 28.566 28.566zm0-46.254c9.752 0 17.688 7.936 17.688 17.688s-7.936 17.688-17.688 17.688c-9.752 0-17.688-7.936-17.688-17.688s7.93-17.688 17.688-17.688zm-185.75 80.363c-15.752 0-28.566 12.814-28.566 28.566 0 15.752 12.814 28.566 28.566 28.566s28.566-12.81 28.566-28.566c0-15.747-12.814-28.566-28.566-28.566zm0 46.253c-9.752 0-17.688-7.936-17.688-17.688 0-9.752 7.936-17.688 17.688-17.688s17.688 7.936 17.688 17.688c0 9.753-7.936 17.688-17.688 17.688zm92.459-46.253c-15.752 0-28.566 12.814-28.566 28.566 0 15.752 12.814 28.566 28.566 28.566s28.566-12.809 28.566-28.566c0-15.747-12.815-28.566-28.566-28.566zm0 46.253c-9.752 0-17.688-7.936-17.688-17.688 0-9.752 7.936-17.688 17.688-17.688s17.688 7.936 17.688 17.688c0 9.753-7.936 17.688-17.688 17.688zm93.949-46.253c-15.752 0-28.566 12.814-28.566 28.566 0 15.752 12.814 28.566 28.566 28.566s28.566-12.809 28.566-28.566c-.006-15.747-12.82-28.566-28.566-28.566zm0 46.253c-9.752 0-17.688-7.936-17.688-17.688 0-9.752 7.936-17.688 17.688-17.688 9.752 0 17.688 7.936 17.688 17.688 0 9.753-7.941 17.688-17.688 17.688z" fill="#010002"/></svg>