<svg xmlns="http://www.w3.org/2000/svg" viewBox="0 0 512 512" fill="#fff"><path d="M196.791 384.287c1.397-5.216.648-10.654-2.109-15.315l-6.196-10.473c-5.638-9.533-18.136-12.834-27.856-7.354l-8.008 4.512a77.002 77.002 0 00-21.82-12.334v-8.73c0-11.127-9.187-20.179-20.478-20.179H97.931c-11.292 0-20.478 9.053-20.478 20.179v8.73a76.94 76.94 0 00-21.82 12.334l-8.008-4.512c-9.72-5.477-22.218-2.178-27.855 7.353l-6.197 10.475c-2.756 4.66-3.505 10.098-2.108 15.314 1.412 5.271 4.834 9.662 9.635 12.368l7.795 4.391a73.353 73.353 0 000 24.322l-7.796 4.391c-4.801 2.706-8.222 7.097-9.634 12.368-1.397 5.216-.649 10.654 2.108 15.315l6.197 10.473c5.637 9.533 18.135 12.833 27.856 7.354l8.008-4.512a77.04 77.04 0 0021.82 12.335v8.729c0 11.127 9.187 20.179 20.478 20.179h12.392c11.292 0 20.478-9.053 20.478-20.179v-8.729a76.991 76.991 0 0021.82-12.335l8.008 4.512c9.722 5.478 22.216 2.178 27.856-7.353l6.197-10.475c2.756-4.66 3.505-10.098 2.108-15.314-1.412-5.271-4.833-9.662-9.633-12.368l-7.795-4.391a73.362 73.362 0 000-24.322l7.795-4.391c4.799-2.706 8.221-7.097 9.633-12.368zm-15.619-4.181c-.277 1.036-.971 1.91-1.953 2.464l-12.963 7.303a8.084 8.084 0 00-3.86 9.062 57.172 57.172 0 010 28.546 8.084 8.084 0 003.86 9.062l12.963 7.303c.982.554 1.676 1.428 1.953 2.464a3.68 3.68 0 01-.409 2.897l-6.197 10.475c-1.175 1.985-3.926 2.672-6.004 1.5l-12.985-7.317a8.087 8.087 0 00-9.531 1.177c-7.135 6.765-15.946 11.734-25.484 14.367a8.084 8.084 0 00-5.932 7.792v14.619c0 2.212-1.933 4.011-4.309 4.011H97.928c-2.377 0-4.309-1.799-4.309-4.011v-14.619a8.083 8.083 0 00-5.932-7.792c-9.536-2.633-18.349-7.602-25.484-14.367a8.07 8.07 0 00-5.564-2.218 8.078 8.078 0 00-3.967 1.041l-12.985 7.317c-2.079 1.171-4.829.485-6.004-1.502l-6.196-10.473a3.696 3.696 0 01-.406-2.898c.277-1.036.971-1.91 1.953-2.464l12.964-7.303a8.084 8.084 0 003.86-9.063 57.123 57.123 0 010-28.544 8.084 8.084 0 00-3.86-9.063l-12.963-7.303c-.982-.554-1.676-1.428-1.953-2.464a3.699 3.699 0 01.406-2.897l6.197-10.475c1.175-1.985 3.925-2.671 6.004-1.5l12.985 7.317a8.082 8.082 0 009.531-1.177c7.136-6.765 15.947-11.734 25.484-14.366a8.083 8.083 0 005.933-7.792v-14.619c0-2.212 1.933-4.011 4.309-4.011h12.393c2.377 0 4.309 1.799 4.309 4.011v14.619a8.082 8.082 0 005.933 7.792c9.535 2.632 18.347 7.601 25.482 14.366a8.08 8.08 0 009.531 1.177l12.985-7.317c2.08-1.171 4.83-.485 6.004 1.502l6.197 10.473a3.701 3.701 0 01.407 2.898zm97.875-259.288a8.082 8.082 0 00-2.16 11.226c7.552 11.152 11.543 24.197 11.543 37.724 0 37.147-30.221 67.368-67.366 67.368s-67.366-30.221-67.366-67.368c0-13.398 3.921-26.338 11.339-37.421 12.551-18.751 33.496-29.947 56.026-29.947 13.076 0 25.752 3.749 36.661 10.839a8.083 8.083 0 108.811-13.555c-13.536-8.801-29.26-13.452-45.472-13.452-27.937 0-53.903 13.878-69.463 37.122-9.206 13.753-14.072 29.803-14.072 46.415 0 46.062 37.473 83.537 83.535 83.537s83.535-37.475 83.535-83.537c0-16.773-4.953-32.951-14.324-46.789a8.084 8.084 0 00-11.227-2.162z"/><path d="M136.574 405.122a8.083 8.083 0 00-8.084 8.084c0 13.434-10.929 24.364-24.362 24.364s-24.363-10.93-24.363-24.364 10.929-24.364 24.363-24.364c4.077 0 8.107 1.024 11.655 2.962a8.085 8.085 0 007.749-14.19 40.589 40.589 0 00-19.404-4.941c-22.348 0-40.53 18.182-40.53 40.532 0 22.35 18.182 40.532 40.53 40.532 22.348 0 40.53-18.182 40.53-40.532a8.083 8.083 0 00-8.084-8.083zm185.628-130.289c6.858 3.959 14.845 5.012 22.493 2.962 7.648-2.049 14.04-6.955 17.998-13.811l10.779-18.669c3.958-6.857 5.01-14.845 2.961-22.494-2.05-7.647-6.955-14.039-13.811-17.998l-17.389-10.039c1.646-8.21 2.478-16.6 2.478-25.018s-.832-16.808-2.478-25.018l17.389-10.04c6.858-3.959 11.762-10.35 13.811-17.998 2.049-7.649.998-15.637-2.961-22.493l-10.778-18.669c-3.959-6.857-10.351-11.762-17.999-13.811-7.649-2.049-15.636-.998-22.492 2.962l-17.411 10.052c-12.64-11.138-27.425-19.687-43.309-25.043V29.642C261.483 13.298 248.186 0 231.842 0h-21.557c-16.344 0-29.641 13.298-29.641 29.642v20.072c-15.884 5.355-30.669 13.905-43.309 25.043l-17.41-10.052c-6.857-3.958-14.844-5.01-22.494-2.962-7.648 2.049-14.04 6.955-17.999 13.811L68.654 94.222c-8.172 14.155-3.304 32.32 10.85 40.491l17.389 10.04a127.357 127.357 0 00-2.478 25.018c0 8.417.832 16.807 2.478 25.018l-17.389 10.039C65.35 213 60.482 231.163 68.654 245.319l10.779 18.669c3.959 6.857 10.351 11.762 17.999 13.811 7.648 2.048 15.635.997 22.492-2.962l17.411-10.052c12.641 11.138 27.425 19.687 43.309 25.043v20.067c0 16.344 13.297 29.642 29.641 29.642h21.557c16.344 0 29.641-13.298 29.641-29.642v-20.068c15.884-5.355 30.668-13.905 43.309-25.043l17.41 10.049zm-24.159-25.826c-13.14 12.769-29.338 22.133-46.843 27.085a8.083 8.083 0 00-5.884 7.779v26.024c0 7.43-6.045 13.474-13.474 13.474h-21.557c-7.43 0-13.474-6.044-13.474-13.474v-26.026a8.084 8.084 0 00-5.884-7.779c-17.505-4.952-33.704-14.317-46.843-27.085a8.078 8.078 0 00-9.675-1.203l-22.569 13.031a13.371 13.371 0 01-10.224 1.346 13.379 13.379 0 01-8.181-6.278l-10.778-18.669c-3.714-6.434-1.503-14.691 4.931-18.405l22.541-13.015a8.083 8.083 0 003.797-8.975c-2.219-8.813-3.345-17.922-3.345-27.07s1.125-18.256 3.345-27.07a8.084 8.084 0 00-3.797-8.975l-22.541-13.014c-6.435-3.714-8.647-11.971-4.932-18.405l10.779-18.669a13.39 13.39 0 018.181-6.278 13.38 13.38 0 0110.224 1.346l22.569 13.031a8.08 8.08 0 009.675-1.203c13.14-12.769 29.338-22.133 46.843-27.085a8.083 8.083 0 005.884-7.779V29.642c0-7.43 6.045-13.474 13.474-13.474h21.557c7.43 0 13.474 6.044 13.474 13.474v26.024a8.083 8.083 0 005.884 7.779c17.505 4.952 33.704 14.317 46.843 27.085a8.08 8.08 0 009.675 1.203l22.568-13.029a13.385 13.385 0 0110.224-1.346 13.379 13.379 0 018.181 6.278l10.779 18.669a13.385 13.385 0 011.346 10.224 13.382 13.382 0 01-6.278 8.181l-22.542 13.014a8.083 8.083 0 00-3.797 8.975 111.002 111.002 0 013.344 27.07c0 9.15-1.124 18.257-3.344 27.07a8.084 8.084 0 003.797 8.975l22.542 13.015a13.392 13.392 0 016.278 8.181 13.39 13.39 0 01-1.346 10.224l-10.779 18.669a13.388 13.388 0 01-8.18 6.278 13.377 13.377 0 01-10.224-1.346l-22.569-13.031a8.082 8.082 0 00-9.675 1.203z"/><path d="M261.483 158.989a8.084 8.084 0 00-8.084-8.084h-64.672a8.083 8.083 0 00-8.084 8.084 8.084 8.084 0 008.084 8.084h64.672a8.083 8.083 0 008.084-8.084zm163.078 211.507a8.084 8.084 0 00-3.955 10.727c1.992 4.319 3.002 8.944 3.002 13.749 0 18.127-14.748 32.876-32.875 32.876s-32.875-14.749-32.875-32.876 14.748-32.876 32.875-32.876c4.461 0 8.782.874 12.841 2.6a8.081 8.081 0 0010.602-4.278 8.084 8.084 0 00-4.278-10.602 48.743 48.743 0 00-19.165-3.888c-27.042 0-49.043 22.001-49.043 49.044s22.001 49.044 49.043 49.044c27.042 0 49.043-22.001 49.043-49.044 0-7.159-1.51-14.063-4.488-20.521a8.086 8.086 0 00-10.727-3.955z"/><path d="M489.654 416.268l-10.363-5.839a86.465 86.465 0 000-30.914l10.363-5.84c5.382-3.031 9.218-7.952 10.799-13.855 1.564-5.839.725-11.928-2.362-17.147l-7.442-12.578c-6.325-10.693-20.347-14.391-31.259-8.244l-10.584 5.963a90.764 90.764 0 00-27.662-15.633v-11.627c0-12.468-10.304-22.611-22.969-22.611H383.29c-12.665 0-22.969 10.144-22.969 22.611v11.627a90.788 90.788 0 00-27.662 15.633l-10.584-5.963c-10.913-6.149-24.934-2.451-31.258 8.243l-7.443 12.58c-3.086 5.218-3.925 11.307-2.361 17.146 1.581 5.903 5.416 10.823 10.798 13.855l10.364 5.84a86.465 86.465 0 000 30.914l-10.364 5.839c-5.383 3.032-9.218 7.954-10.799 13.858-1.564 5.838-.724 11.926 2.362 17.144l7.443 12.579c6.326 10.692 20.35 14.393 31.259 8.244l10.584-5.963a90.762 90.762 0 0027.662 15.633v11.626c0 12.468 10.304 22.611 22.969 22.611h14.885c12.665 0 22.969-10.144 22.969-22.611v-11.626a90.773 90.773 0 0027.662-15.633l10.584 5.963c10.913 6.148 24.933 2.449 31.258-8.243l7.442-12.58c3.086-5.218 3.926-11.306 2.362-17.144-1.581-5.904-5.416-10.826-10.799-13.858zm-5.479 22.769l-7.443 12.581c-1.881 3.179-6.101 4.252-9.407 2.39l-15.596-8.787a8.084 8.084 0 00-9.531 1.177c-8.762 8.307-19.582 14.408-31.292 17.642a8.084 8.084 0 00-5.932 7.792v17.558c0 3.553-3.05 6.443-6.8 6.443h-14.885c-3.75 0-6.8-2.89-6.8-6.443v-17.558a8.083 8.083 0 00-5.932-7.792c-11.71-3.234-22.53-9.335-31.292-17.642a8.07 8.07 0 00-5.564-2.218 8.078 8.078 0 00-3.967 1.041l-15.595 8.787c-3.306 1.862-7.525.791-9.407-2.391l-7.443-12.58a6.114 6.114 0 01-.659-4.728c.447-1.67 1.554-3.075 3.117-3.956l15.569-8.772a8.084 8.084 0 003.86-9.062 70.262 70.262 0 010-35.095 8.084 8.084 0 00-3.859-9.063l-15.569-8.773c-1.563-.881-2.67-2.285-3.117-3.955a6.112 6.112 0 01.659-4.729l7.443-12.58c1.882-3.18 6.101-4.253 9.407-2.39l15.596 8.787a8.086 8.086 0 009.531-1.177c8.762-8.308 19.583-14.409 31.291-17.642a8.083 8.083 0 005.933-7.792v-17.559c0-3.553 3.05-6.443 6.8-6.443h14.885c3.75 0 6.8 2.89 6.8 6.443v17.559a8.082 8.082 0 005.933 7.792c11.708 3.233 22.528 9.333 31.291 17.642a8.081 8.081 0 009.531 1.177l15.596-8.787c3.307-1.862 7.525-.79 9.407 2.391l7.442 12.578a6.11 6.11 0 01.66 4.73c-.447 1.67-1.554 3.074-3.118 3.955l-15.569 8.773a8.084 8.084 0 00-3.859 9.063 70.256 70.256 0 010 35.095 8.084 8.084 0 003.86 9.062l15.569 8.772c1.563.881 2.67 2.286 3.117 3.956a6.11 6.11 0 01-.661 4.728zM210.284 183.242a8.083 8.083 0 00-8.084 8.084 8.084 8.084 0 008.084 8.084h21.557a8.083 8.083 0 008.084-8.084 8.084 8.084 0 00-8.084-8.084h-21.557z"/></svg>