<svg xmlns="http://www.w3.org/2000/svg" width="600" height="600"><path d="M604.802 600a4.802 4.802 0 01-4.802 4.802 4.802 4.802 0 01-4.802-4.802 4.802 4.802 0 014.802-4.802 4.802 4.802 0 014.802 4.802zm-50 0a4.802 4.802 0 01-4.802 4.802 4.802 4.802 0 01-4.802-4.802 4.802 4.802 0 014.802-4.802 4.802 4.802 0 014.802 4.802zm-50 0a4.802 4.802 0 01-4.802 4.802 4.802 4.802 0 01-4.802-4.802 4.802 4.802 0 014.802-4.802 4.802 4.802 0 014.802 4.802zm-50 0a4.802 4.802 0 01-4.802 4.802 4.802 4.802 0 01-4.802-4.802 4.802 4.802 0 014.802-4.802 4.802 4.802 0 014.802 4.802zm-50 0a4.802 4.802 0 01-4.802 4.802 4.802 4.802 0 01-4.802-4.802 4.802 4.802 0 014.802-4.802 4.802 4.802 0 014.802 4.802zm-50 0a4.802 4.802 0 01-4.802 4.802 4.802 4.802 0 01-4.802-4.802 4.802 4.802 0 014.802-4.802 4.802 4.802 0 014.802 4.802zm-50 0a4.802 4.802 0 01-4.802 4.802 4.802 4.802 0 01-4.802-4.802 4.802 4.802 0 014.802-4.802 4.802 4.802 0 014.802 4.802zm-50 0a4.802 4.802 0 01-4.802 4.802 4.802 4.802 0 01-4.802-4.802 4.802 4.802 0 014.802-4.802 4.802 4.802 0 014.802 4.802zm-50 0a4.802 4.802 0 01-4.802 4.802 4.802 4.802 0 01-4.802-4.802 4.802 4.802 0 014.802-4.802 4.802 4.802 0 014.802 4.802zm-50 0a4.802 4.802 0 01-4.802 4.802 4.802 4.802 0 01-4.802-4.802 4.802 4.802 0 014.802-4.802 4.802 4.802 0 014.802 4.802zm-50 0a4.802 4.802 0 01-4.802 4.802A4.802 4.802 0 0195.198 600a4.802 4.802 0 014.802-4.802 4.802 4.802 0 014.802 4.802zm-50 0A4.802 4.802 0 0150 604.802 4.802 4.802 0 0145.198 600 4.802 4.802 0 0150 595.198 4.802 4.802 0 0154.802 600zm-50 0A4.802 4.802 0 010 604.802 4.802 4.802 0 01-4.802 600 4.802 4.802 0 010 595.198 4.802 4.802 0 014.802 600zm600-50a4.802 4.802 0 01-4.802 4.802 4.802 4.802 0 01-4.802-4.802 4.802 4.802 0 014.802-4.802 4.802 4.802 0 014.802 4.802zm-50 0a4.802 4.802 0 01-4.802 4.802 4.802 4.802 0 01-4.802-4.802 4.802 4.802 0 014.802-4.802 4.802 4.802 0 014.802 4.802zm-50 0a4.802 4.802 0 01-4.802 4.802 4.802 4.802 0 01-4.802-4.802 4.802 4.802 0 014.802-4.802 4.802 4.802 0 014.802 4.802zm-50 0a4.802 4.802 0 01-4.802 4.802 4.802 4.802 0 01-4.802-4.802 4.802 4.802 0 014.802-4.802 4.802 4.802 0 014.802 4.802zm-50 0a4.802 4.802 0 01-4.802 4.802 4.802 4.802 0 01-4.802-4.802 4.802 4.802 0 014.802-4.802 4.802 4.802 0 014.802 4.802zm-50 0a4.802 4.802 0 01-4.802 4.802 4.802 4.802 0 01-4.802-4.802 4.802 4.802 0 014.802-4.802 4.802 4.802 0 014.802 4.802zm-50 0a4.802 4.802 0 01-4.802 4.802 4.802 4.802 0 01-4.802-4.802 4.802 4.802 0 014.802-4.802 4.802 4.802 0 014.802 4.802zm-50 0a4.802 4.802 0 01-4.802 4.802 4.802 4.802 0 01-4.802-4.802 4.802 4.802 0 014.802-4.802 4.802 4.802 0 014.802 4.802zm-50 0a4.802 4.802 0 01-4.802 4.802 4.802 4.802 0 01-4.802-4.802 4.802 4.802 0 014.802-4.802 4.802 4.802 0 014.802 4.802zm-50 0a4.802 4.802 0 01-4.802 4.802 4.802 4.802 0 01-4.802-4.802 4.802 4.802 0 014.802-4.802 4.802 4.802 0 014.802 4.802zm-50 0a4.802 4.802 0 01-4.802 4.802A4.802 4.802 0 0195.198 550a4.802 4.802 0 014.802-4.802 4.802 4.802 0 014.802 4.802zm-50 0A4.802 4.802 0 0150 554.802 4.802 4.802 0 0145.198 550 4.802 4.802 0 0150 545.198 4.802 4.802 0 0154.802 550zm-50 0A4.802 4.802 0 010 554.802 4.802 4.802 0 01-4.802 550 4.802 4.802 0 010 545.198 4.802 4.802 0 014.802 550zm600-50a4.802 4.802 0 01-4.802 4.802 4.802 4.802 0 01-4.802-4.802 4.802 4.802 0 014.802-4.802 4.802 4.802 0 014.802 4.802zm-50 0a4.802 4.802 0 01-4.802 4.802 4.802 4.802 0 01-4.802-4.802 4.802 4.802 0 014.802-4.802 4.802 4.802 0 014.802 4.802zm-50 0a4.802 4.802 0 01-4.802 4.802 4.802 4.802 0 01-4.802-4.802 4.802 4.802 0 014.802-4.802 4.802 4.802 0 014.802 4.802zm-50 0a4.802 4.802 0 01-4.802 4.802 4.802 4.802 0 01-4.802-4.802 4.802 4.802 0 014.802-4.802 4.802 4.802 0 014.802 4.802zm-50 0a4.802 4.802 0 01-4.802 4.802 4.802 4.802 0 01-4.802-4.802 4.802 4.802 0 014.802-4.802 4.802 4.802 0 014.802 4.802zm-50 0a4.802 4.802 0 01-4.802 4.802 4.802 4.802 0 01-4.802-4.802 4.802 4.802 0 014.802-4.802 4.802 4.802 0 014.802 4.802zm-50 0a4.802 4.802 0 01-4.802 4.802 4.802 4.802 0 01-4.802-4.802 4.802 4.802 0 014.802-4.802 4.802 4.802 0 014.802 4.802zm-50 0a4.802 4.802 0 01-4.802 4.802 4.802 4.802 0 01-4.802-4.802 4.802 4.802 0 014.802-4.802 4.802 4.802 0 014.802 4.802zm-50 0a4.802 4.802 0 01-4.802 4.802 4.802 4.802 0 01-4.802-4.802 4.802 4.802 0 014.802-4.802 4.802 4.802 0 014.802 4.802zm-50 0a4.802 4.802 0 01-4.802 4.802 4.802 4.802 0 01-4.802-4.802 4.802 4.802 0 014.802-4.802 4.802 4.802 0 014.802 4.802zm-50 0a4.802 4.802 0 01-4.802 4.802A4.802 4.802 0 0195.198 500a4.802 4.802 0 014.802-4.802 4.802 4.802 0 014.802 4.802zm-50 0A4.802 4.802 0 0150 504.802 4.802 4.802 0 0145.198 500 4.802 4.802 0 0150 495.198 4.802 4.802 0 0154.802 500zm-50 0A4.802 4.802 0 010 504.802 4.802 4.802 0 01-4.802 500 4.802 4.802 0 010 495.198 4.802 4.802 0 014.802 500zm600-50a4.802 4.802 0 01-4.802 4.802 4.802 4.802 0 01-4.802-4.802 4.802 4.802 0 014.802-4.802 4.802 4.802 0 014.802 4.802zm-50 0a4.802 4.802 0 01-4.802 4.802 4.802 4.802 0 01-4.802-4.802 4.802 4.802 0 014.802-4.802 4.802 4.802 0 014.802 4.802zm-50 0a4.802 4.802 0 01-4.802 4.802 4.802 4.802 0 01-4.802-4.802 4.802 4.802 0 014.802-4.802 4.802 4.802 0 014.802 4.802zm-50 0a4.802 4.802 0 01-4.802 4.802 4.802 4.802 0 01-4.802-4.802 4.802 4.802 0 014.802-4.802 4.802 4.802 0 014.802 4.802zm-50 0a4.802 4.802 0 01-4.802 4.802 4.802 4.802 0 01-4.802-4.802 4.802 4.802 0 014.802-4.802 4.802 4.802 0 014.802 4.802zm-50 0a4.802 4.802 0 01-4.802 4.802 4.802 4.802 0 01-4.802-4.802 4.802 4.802 0 014.802-4.802 4.802 4.802 0 014.802 4.802zm-50 0a4.802 4.802 0 01-4.802 4.802 4.802 4.802 0 01-4.802-4.802 4.802 4.802 0 014.802-4.802 4.802 4.802 0 014.802 4.802zm-50 0a4.802 4.802 0 01-4.802 4.802 4.802 4.802 0 01-4.802-4.802 4.802 4.802 0 014.802-4.802 4.802 4.802 0 014.802 4.802zm-50 0a4.802 4.802 0 01-4.802 4.802 4.802 4.802 0 01-4.802-4.802 4.802 4.802 0 014.802-4.802 4.802 4.802 0 014.802 4.802zm-50 0a4.802 4.802 0 01-4.802 4.802 4.802 4.802 0 01-4.802-4.802 4.802 4.802 0 014.802-4.802 4.802 4.802 0 014.802 4.802zm-50 0a4.802 4.802 0 01-4.802 4.802A4.802 4.802 0 0195.198 450a4.802 4.802 0 014.802-4.802 4.802 4.802 0 014.802 4.802zm-50 0A4.802 4.802 0 0150 454.802 4.802 4.802 0 0145.198 450 4.802 4.802 0 0150 445.198 4.802 4.802 0 0154.802 450zm-50 0A4.802 4.802 0 010 454.802 4.802 4.802 0 01-4.802 450 4.802 4.802 0 010 445.198 4.802 4.802 0 014.802 450zm600-50a4.802 4.802 0 01-4.802 4.802 4.802 4.802 0 01-4.802-4.802 4.802 4.802 0 014.802-4.802 4.802 4.802 0 014.802 4.802zm-50 0a4.802 4.802 0 01-4.802 4.802 4.802 4.802 0 01-4.802-4.802 4.802 4.802 0 014.802-4.802 4.802 4.802 0 014.802 4.802zm-50 0a4.802 4.802 0 01-4.802 4.802 4.802 4.802 0 01-4.802-4.802 4.802 4.802 0 014.802-4.802 4.802 4.802 0 014.802 4.802zm-50 0a4.802 4.802 0 01-4.802 4.802 4.802 4.802 0 01-4.802-4.802 4.802 4.802 0 014.802-4.802 4.802 4.802 0 014.802 4.802zm-50 0a4.802 4.802 0 01-4.802 4.802 4.802 4.802 0 01-4.802-4.802 4.802 4.802 0 014.802-4.802 4.802 4.802 0 014.802 4.802zm-50 0a4.802 4.802 0 01-4.802 4.802 4.802 4.802 0 01-4.802-4.802 4.802 4.802 0 014.802-4.802 4.802 4.802 0 014.802 4.802zm-50 0a4.802 4.802 0 01-4.802 4.802 4.802 4.802 0 01-4.802-4.802 4.802 4.802 0 014.802-4.802 4.802 4.802 0 014.802 4.802zm-50 0a4.802 4.802 0 01-4.802 4.802 4.802 4.802 0 01-4.802-4.802 4.802 4.802 0 014.802-4.802 4.802 4.802 0 014.802 4.802zm-50 0a4.802 4.802 0 01-4.802 4.802 4.802 4.802 0 01-4.802-4.802 4.802 4.802 0 014.802-4.802 4.802 4.802 0 014.802 4.802zm-50 0a4.802 4.802 0 01-4.802 4.802 4.802 4.802 0 01-4.802-4.802 4.802 4.802 0 014.802-4.802 4.802 4.802 0 014.802 4.802zm-50 0a4.802 4.802 0 01-4.802 4.802A4.802 4.802 0 0195.198 400a4.802 4.802 0 014.802-4.802 4.802 4.802 0 014.802 4.802zm-50 0A4.802 4.802 0 0150 404.802 4.802 4.802 0 0145.198 400 4.802 4.802 0 0150 395.198 4.802 4.802 0 0154.802 400zm-50 0A4.802 4.802 0 010 404.802 4.802 4.802 0 01-4.802 400 4.802 4.802 0 010 395.198 4.802 4.802 0 014.802 400zm600-50a4.802 4.802 0 01-4.802 4.802 4.802 4.802 0 01-4.802-4.802 4.802 4.802 0 014.802-4.802 4.802 4.802 0 014.802 4.802zm-50 0a4.802 4.802 0 01-4.802 4.802 4.802 4.802 0 01-4.802-4.802 4.802 4.802 0 014.802-4.802 4.802 4.802 0 014.802 4.802zm-50 0a4.802 4.802 0 01-4.802 4.802 4.802 4.802 0 01-4.802-4.802 4.802 4.802 0 014.802-4.802 4.802 4.802 0 014.802 4.802zm-50 0a4.802 4.802 0 01-4.802 4.802 4.802 4.802 0 01-4.802-4.802 4.802 4.802 0 014.802-4.802 4.802 4.802 0 014.802 4.802zm-50 0a4.802 4.802 0 01-4.802 4.802 4.802 4.802 0 01-4.802-4.802 4.802 4.802 0 014.802-4.802 4.802 4.802 0 014.802 4.802zm-50 0a4.802 4.802 0 01-4.802 4.802 4.802 4.802 0 01-4.802-4.802 4.802 4.802 0 014.802-4.802 4.802 4.802 0 014.802 4.802zm-50 0a4.802 4.802 0 01-4.802 4.802 4.802 4.802 0 01-4.802-4.802 4.802 4.802 0 014.802-4.802 4.802 4.802 0 014.802 4.802zm-50 0a4.802 4.802 0 01-4.802 4.802 4.802 4.802 0 01-4.802-4.802 4.802 4.802 0 014.802-4.802 4.802 4.802 0 014.802 4.802zm-50 0a4.802 4.802 0 01-4.802 4.802 4.802 4.802 0 01-4.802-4.802 4.802 4.802 0 014.802-4.802 4.802 4.802 0 014.802 4.802zm-50 0a4.802 4.802 0 01-4.802 4.802 4.802 4.802 0 01-4.802-4.802 4.802 4.802 0 014.802-4.802 4.802 4.802 0 014.802 4.802zm-50 0a4.802 4.802 0 01-4.802 4.802A4.802 4.802 0 0195.198 350a4.802 4.802 0 014.802-4.802 4.802 4.802 0 014.802 4.802zm-50 0A4.802 4.802 0 0150 354.802 4.802 4.802 0 0145.198 350 4.802 4.802 0 0150 345.198 4.802 4.802 0 0154.802 350zm-50 0A4.802 4.802 0 010 354.802 4.802 4.802 0 01-4.802 350 4.802 4.802 0 010 345.198 4.802 4.802 0 014.802 350zm600-50a4.802 4.802 0 01-4.802 4.802 4.802 4.802 0 01-4.802-4.802 4.802 4.802 0 014.802-4.802 4.802 4.802 0 014.802 4.802zm-50 0a4.802 4.802 0 01-4.802 4.802 4.802 4.802 0 01-4.802-4.802 4.802 4.802 0 014.802-4.802 4.802 4.802 0 014.802 4.802zm-50 0a4.802 4.802 0 01-4.802 4.802 4.802 4.802 0 01-4.802-4.802 4.802 4.802 0 014.802-4.802 4.802 4.802 0 014.802 4.802zm-50 0a4.802 4.802 0 01-4.802 4.802 4.802 4.802 0 01-4.802-4.802 4.802 4.802 0 014.802-4.802 4.802 4.802 0 014.802 4.802zm-50 0a4.802 4.802 0 01-4.802 4.802 4.802 4.802 0 01-4.802-4.802 4.802 4.802 0 014.802-4.802 4.802 4.802 0 014.802 4.802zm-50 0a4.802 4.802 0 01-4.802 4.802 4.802 4.802 0 01-4.802-4.802 4.802 4.802 0 014.802-4.802 4.802 4.802 0 014.802 4.802zm-50 0a4.802 4.802 0 01-4.802 4.802 4.802 4.802 0 01-4.802-4.802 4.802 4.802 0 014.802-4.802 4.802 4.802 0 014.802 4.802zm-50 0a4.802 4.802 0 01-4.802 4.802 4.802 4.802 0 01-4.802-4.802 4.802 4.802 0 014.802-4.802 4.802 4.802 0 014.802 4.802zm-50 0a4.802 4.802 0 01-4.802 4.802 4.802 4.802 0 01-4.802-4.802 4.802 4.802 0 014.802-4.802 4.802 4.802 0 014.802 4.802zm-50 0a4.802 4.802 0 01-4.802 4.802 4.802 4.802 0 01-4.802-4.802 4.802 4.802 0 014.802-4.802 4.802 4.802 0 014.802 4.802zm-50 0a4.802 4.802 0 01-4.802 4.802A4.802 4.802 0 0195.198 300a4.802 4.802 0 014.802-4.802 4.802 4.802 0 014.802 4.802zm-50 0A4.802 4.802 0 0150 304.802 4.802 4.802 0 0145.198 300 4.802 4.802 0 0150 295.198 4.802 4.802 0 0154.802 300zm-50 0A4.802 4.802 0 010 304.802 4.802 4.802 0 01-4.802 300 4.802 4.802 0 010 295.198 4.802 4.802 0 014.802 300zm600-50a4.802 4.802 0 01-4.802 4.802 4.802 4.802 0 01-4.802-4.802 4.802 4.802 0 014.802-4.802 4.802 4.802 0 014.802 4.802zm-50 0a4.802 4.802 0 01-4.802 4.802 4.802 4.802 0 01-4.802-4.802 4.802 4.802 0 014.802-4.802 4.802 4.802 0 014.802 4.802zm-50 0a4.802 4.802 0 01-4.802 4.802 4.802 4.802 0 01-4.802-4.802 4.802 4.802 0 014.802-4.802 4.802 4.802 0 014.802 4.802zm-50 0a4.802 4.802 0 01-4.802 4.802 4.802 4.802 0 01-4.802-4.802 4.802 4.802 0 014.802-4.802 4.802 4.802 0 014.802 4.802zm-50 0a4.802 4.802 0 01-4.802 4.802 4.802 4.802 0 01-4.802-4.802 4.802 4.802 0 014.802-4.802 4.802 4.802 0 014.802 4.802zm-50 0a4.802 4.802 0 01-4.802 4.802 4.802 4.802 0 01-4.802-4.802 4.802 4.802 0 014.802-4.802 4.802 4.802 0 014.802 4.802zm-50 0a4.802 4.802 0 01-4.802 4.802 4.802 4.802 0 01-4.802-4.802 4.802 4.802 0 014.802-4.802 4.802 4.802 0 014.802 4.802zm-50 0a4.802 4.802 0 01-4.802 4.802 4.802 4.802 0 01-4.802-4.802 4.802 4.802 0 014.802-4.802 4.802 4.802 0 014.802 4.802zm-50 0a4.802 4.802 0 01-4.802 4.802 4.802 4.802 0 01-4.802-4.802 4.802 4.802 0 014.802-4.802 4.802 4.802 0 014.802 4.802zm-50 0a4.802 4.802 0 01-4.802 4.802 4.802 4.802 0 01-4.802-4.802 4.802 4.802 0 014.802-4.802 4.802 4.802 0 014.802 4.802zm-50 0a4.802 4.802 0 01-4.802 4.802A4.802 4.802 0 0195.198 250a4.802 4.802 0 014.802-4.802 4.802 4.802 0 014.802 4.802zm-50 0A4.802 4.802 0 0150 254.802 4.802 4.802 0 0145.198 250 4.802 4.802 0 0150 245.198 4.802 4.802 0 0154.802 250zm-50 0A4.802 4.802 0 010 254.802 4.802 4.802 0 01-4.802 250 4.802 4.802 0 010 245.198 4.802 4.802 0 014.802 250zm600-50a4.802 4.802 0 01-4.802 4.802 4.802 4.802 0 01-4.802-4.802 4.802 4.802 0 014.802-4.802 4.802 4.802 0 014.802 4.802zm-50 0a4.802 4.802 0 01-4.802 4.802 4.802 4.802 0 01-4.802-4.802 4.802 4.802 0 014.802-4.802 4.802 4.802 0 014.802 4.802zm-50 0a4.802 4.802 0 01-4.802 4.802 4.802 4.802 0 01-4.802-4.802 4.802 4.802 0 014.802-4.802 4.802 4.802 0 014.802 4.802zm-50 0a4.802 4.802 0 01-4.802 4.802 4.802 4.802 0 01-4.802-4.802 4.802 4.802 0 014.802-4.802 4.802 4.802 0 014.802 4.802zm-50 0a4.802 4.802 0 01-4.802 4.802 4.802 4.802 0 01-4.802-4.802 4.802 4.802 0 014.802-4.802 4.802 4.802 0 014.802 4.802zm-50 0a4.802 4.802 0 01-4.802 4.802 4.802 4.802 0 01-4.802-4.802 4.802 4.802 0 014.802-4.802 4.802 4.802 0 014.802 4.802zm-50 0a4.802 4.802 0 01-4.802 4.802 4.802 4.802 0 01-4.802-4.802 4.802 4.802 0 014.802-4.802 4.802 4.802 0 014.802 4.802zm-50 0a4.802 4.802 0 01-4.802 4.802 4.802 4.802 0 01-4.802-4.802 4.802 4.802 0 014.802-4.802 4.802 4.802 0 014.802 4.802zm-50 0a4.802 4.802 0 01-4.802 4.802 4.802 4.802 0 01-4.802-4.802 4.802 4.802 0 014.802-4.802 4.802 4.802 0 014.802 4.802zm-50 0a4.802 4.802 0 01-4.802 4.802 4.802 4.802 0 01-4.802-4.802 4.802 4.802 0 014.802-4.802 4.802 4.802 0 014.802 4.802zm-50 0a4.802 4.802 0 01-4.802 4.802A4.802 4.802 0 0195.198 200a4.802 4.802 0 014.802-4.802 4.802 4.802 0 014.802 4.802zm-50 0A4.802 4.802 0 0150 204.802 4.802 4.802 0 0145.198 200 4.802 4.802 0 0150 195.198 4.802 4.802 0 0154.802 200zm-50 0A4.802 4.802 0 010 204.802 4.802 4.802 0 01-4.802 200 4.802 4.802 0 010 195.198 4.802 4.802 0 014.802 200zm600-50a4.802 4.802 0 01-4.802 4.802 4.802 4.802 0 01-4.802-4.802 4.802 4.802 0 014.802-4.802 4.802 4.802 0 014.802 4.802zm-50 0a4.802 4.802 0 01-4.802 4.802 4.802 4.802 0 01-4.802-4.802 4.802 4.802 0 014.802-4.802 4.802 4.802 0 014.802 4.802zm-50 0a4.802 4.802 0 01-4.802 4.802 4.802 4.802 0 01-4.802-4.802 4.802 4.802 0 014.802-4.802 4.802 4.802 0 014.802 4.802zm-50 0a4.802 4.802 0 01-4.802 4.802 4.802 4.802 0 01-4.802-4.802 4.802 4.802 0 014.802-4.802 4.802 4.802 0 014.802 4.802zm-50 0a4.802 4.802 0 01-4.802 4.802 4.802 4.802 0 01-4.802-4.802 4.802 4.802 0 014.802-4.802 4.802 4.802 0 014.802 4.802zm-50 0a4.802 4.802 0 01-4.802 4.802 4.802 4.802 0 01-4.802-4.802 4.802 4.802 0 014.802-4.802 4.802 4.802 0 014.802 4.802zm-50 0a4.802 4.802 0 01-4.802 4.802 4.802 4.802 0 01-4.802-4.802 4.802 4.802 0 014.802-4.802 4.802 4.802 0 014.802 4.802zm-50 0a4.802 4.802 0 01-4.802 4.802 4.802 4.802 0 01-4.802-4.802 4.802 4.802 0 014.802-4.802 4.802 4.802 0 014.802 4.802zm-50 0a4.802 4.802 0 01-4.802 4.802 4.802 4.802 0 01-4.802-4.802 4.802 4.802 0 014.802-4.802 4.802 4.802 0 014.802 4.802zm-50 0a4.802 4.802 0 01-4.802 4.802 4.802 4.802 0 01-4.802-4.802 4.802 4.802 0 014.802-4.802 4.802 4.802 0 014.802 4.802zm-50 0a4.802 4.802 0 01-4.802 4.802A4.802 4.802 0 0195.198 150a4.802 4.802 0 014.802-4.802 4.802 4.802 0 014.802 4.802zm-50 0A4.802 4.802 0 0150 154.802 4.802 4.802 0 0145.198 150 4.802 4.802 0 0150 145.198 4.802 4.802 0 0154.802 150zm-50 0A4.802 4.802 0 010 154.802 4.802 4.802 0 01-4.802 150 4.802 4.802 0 010 145.198 4.802 4.802 0 014.802 150zm600-50a4.802 4.802 0 01-4.802 4.802 4.802 4.802 0 01-4.802-4.802A4.802 4.802 0 01600 95.198a4.802 4.802 0 014.802 4.802zm-50 0a4.802 4.802 0 01-4.802 4.802 4.802 4.802 0 01-4.802-4.802A4.802 4.802 0 01550 95.198a4.802 4.802 0 014.802 4.802zm-50 0a4.802 4.802 0 01-4.802 4.802 4.802 4.802 0 01-4.802-4.802A4.802 4.802 0 01500 95.198a4.802 4.802 0 014.802 4.802zm-50 0a4.802 4.802 0 01-4.802 4.802 4.802 4.802 0 01-4.802-4.802A4.802 4.802 0 01450 95.198a4.802 4.802 0 014.802 4.802zm-50 0a4.802 4.802 0 01-4.802 4.802 4.802 4.802 0 01-4.802-4.802A4.802 4.802 0 01400 95.198a4.802 4.802 0 014.802 4.802zm-50 0a4.802 4.802 0 01-4.802 4.802 4.802 4.802 0 01-4.802-4.802A4.802 4.802 0 01350 95.198a4.802 4.802 0 014.802 4.802zm-50 0a4.802 4.802 0 01-4.802 4.802 4.802 4.802 0 01-4.802-4.802A4.802 4.802 0 01300 95.198a4.802 4.802 0 014.802 4.802zm-50 0a4.802 4.802 0 01-4.802 4.802 4.802 4.802 0 01-4.802-4.802A4.802 4.802 0 01250 95.198a4.802 4.802 0 014.802 4.802zm-50 0a4.802 4.802 0 01-4.802 4.802 4.802 4.802 0 01-4.802-4.802A4.802 4.802 0 01200 95.198a4.802 4.802 0 014.802 4.802zm-50 0a4.802 4.802 0 01-4.802 4.802 4.802 4.802 0 01-4.802-4.802A4.802 4.802 0 01150 95.198a4.802 4.802 0 014.802 4.802zm-50 0a4.802 4.802 0 01-4.802 4.802A4.802 4.802 0 0195.198 100 4.802 4.802 0 01100 95.198a4.802 4.802 0 014.802 4.802zm-50 0A4.802 4.802 0 0150 104.802 4.802 4.802 0 0145.198 100 4.802 4.802 0 0150 95.198 4.802 4.802 0 0154.802 100zm-50 0A4.802 4.802 0 010 104.802 4.802 4.802 0 01-4.802 100 4.802 4.802 0 010 95.198 4.802 4.802 0 014.802 100zm600-50A4.802 4.802 0 01600 54.802 4.802 4.802 0 01595.198 50 4.802 4.802 0 01600 45.198 4.802 4.802 0 01604.802 50zm-50 0A4.802 4.802 0 01550 54.802 4.802 4.802 0 01545.198 50 4.802 4.802 0 01550 45.198 4.802 4.802 0 01554.802 50zm-50 0A4.802 4.802 0 01500 54.802 4.802 4.802 0 01495.198 50 4.802 4.802 0 01500 45.198 4.802 4.802 0 01504.802 50zm-50 0A4.802 4.802 0 01450 54.802 4.802 4.802 0 01445.198 50 4.802 4.802 0 01450 45.198 4.802 4.802 0 01454.802 50zm-50 0A4.802 4.802 0 01400 54.802 4.802 4.802 0 01395.198 50 4.802 4.802 0 01400 45.198 4.802 4.802 0 01404.802 50zm-50 0A4.802 4.802 0 01350 54.802 4.802 4.802 0 01345.198 50 4.802 4.802 0 01350 45.198 4.802 4.802 0 01354.802 50zm-50 0A4.802 4.802 0 01300 54.802 4.802 4.802 0 01295.198 50 4.802 4.802 0 01300 45.198 4.802 4.802 0 01304.802 50zm-50 0A4.802 4.802 0 01250 54.802 4.802 4.802 0 01245.198 50 4.802 4.802 0 01250 45.198 4.802 4.802 0 01254.802 50zm-50 0A4.802 4.802 0 01200 54.802 4.802 4.802 0 01195.198 50 4.802 4.802 0 01200 45.198 4.802 4.802 0 01204.802 50zm-50 0A4.802 4.802 0 01150 54.802 4.802 4.802 0 01145.198 50 4.802 4.802 0 01150 45.198 4.802 4.802 0 01154.802 50zm-50 0A4.802 4.802 0 01100 54.802 4.802 4.802 0 0195.198 50 4.802 4.802 0 01100 45.198 4.802 4.802 0 01104.802 50zm-50 0A4.802 4.802 0 0150 54.802 4.802 4.802 0 0145.198 50 4.802 4.802 0 0150 45.198 4.802 4.802 0 0154.802 50zm-50 0A4.802 4.802 0 010 54.802 4.802 4.802 0 01-4.802 50 4.802 4.802 0 010 45.198 4.802 4.802 0 014.802 50zm600-50A4.802 4.802 0 01600 4.802 4.802 4.802 0 01595.198 0 4.802 4.802 0 01600-4.802 4.802 4.802 0 01604.802 0zm-50 0A4.802 4.802 0 01550 4.802 4.802 4.802 0 01545.198 0 4.802 4.802 0 01550-4.802 4.802 4.802 0 01554.802 0zm-50 0A4.802 4.802 0 01500 4.802 4.802 4.802 0 01495.198 0 4.802 4.802 0 01500-4.802 4.802 4.802 0 01504.802 0zm-50 0A4.802 4.802 0 01450 4.802 4.802 4.802 0 01445.198 0 4.802 4.802 0 01450-4.802 4.802 4.802 0 01454.802 0zm-50 0A4.802 4.802 0 01400 4.802 4.802 4.802 0 01395.198 0 4.802 4.802 0 01400-4.802 4.802 4.802 0 01404.802 0zm-50 0A4.802 4.802 0 01350 4.802 4.802 4.802 0 01345.198 0 4.802 4.802 0 01350-4.802 4.802 4.802 0 01354.802 0zm-50 0A4.802 4.802 0 01300 4.802 4.802 4.802 0 01295.198 0 4.802 4.802 0 01300-4.802 4.802 4.802 0 01304.802 0zm-50 0A4.802 4.802 0 01250 4.802 4.802 4.802 0 01245.198 0 4.802 4.802 0 01250-4.802 4.802 4.802 0 01254.802 0zm-50 0A4.802 4.802 0 01200 4.802 4.802 4.802 0 01195.198 0 4.802 4.802 0 01200-4.802 4.802 4.802 0 01204.802 0zm-50 0A4.802 4.802 0 01150 4.802 4.802 4.802 0 01145.198 0 4.802 4.802 0 01150-4.802 4.802 4.802 0 01154.802 0zm-50 0A4.802 4.802 0 01100 4.802 4.802 4.802 0 0195.198 0 4.802 4.802 0 01100-4.802 4.802 4.802 0 01104.802 0zm-50 0A4.802 4.802 0 0150 4.802 4.802 4.802 0 0145.198 0 4.802 4.802 0 0150-4.802 4.802 4.802 0 0154.802 0zm-50 0A4.802 4.802 0 010 4.802 4.802 4.802 0 01-4.802 0 4.802 4.802 0 010-4.802 4.802 4.802 0 014.802 0z" fill="#b4d95e"/></svg>