<?xml version="1.0"?>
<svg xmlns="http://www.w3.org/2000/svg" viewBox="0 0 50 50">
    <path style="fill:hsl(78, 62%, 61%);" d="M 60 14 L 60 24 L 50 24 L 50 34 L 40 34 L 40 44 L 30 44 L 30 54 L 20 54 L 20 64 L 14 64 A 1.0001 1.0001 0 1 0 14 66 L 22 66 L 22 56 L 32 56 L 32 46 L 42 46 L 42 36 L 52 36 L 52 26 L 62 26 L 62 16 L 66 16 A 1.0001 1.0001 0 1 0 66 14 L 60 14 z M 70 14 A 1 1 0 0 0 69 15 A 1 1 0 0 0 70 16 A 1 1 0 0 0 71 15 A 1 1 0 0 0 70 14 z M 74 14 A 1 1 0 0 0 73 15 A 1 1 0 0 0 74 16 A 1 1 0 0 0 75 15 A 1 1 0 0 0 74 14 z M 6 64 A 1 1 0 0 0 5 65 A 1 1 0 0 0 6 66 A 1 1 0 0 0 7 65 A 1 1 0 0 0 6 64 z M 10 64 A 1 1 0 0 0 9 65 A 1 1 0 0 0 10 66 A 1 1 0 0 0 11 65 A 1 1 0 0 0 10 64 z"/>
</svg>
